<svg id="visual" viewBox="0 0 900 600" width="900" height="600" xmlns="http://www.w3.org/2000/svg" xmlns:xlink="http://www.w3.org/1999/xlink" version="1.1"><rect x="0" y="0" width="900" height="600" fill="#eeb78f"></rect><defs><linearGradient id="grad1_0" x1="33.3%" y1="0%" x2="100%" y2="100%"><stop offset="20%" stop-color="#eeb78f" stop-opacity="1"></stop><stop offset="80%" stop-color="#eeb78f" stop-opacity="1"></stop></linearGradient></defs><defs><linearGradient id="grad2_0" x1="0%" y1="0%" x2="66.7%" y2="100%"><stop offset="20%" stop-color="#eeb78f" stop-opacity="1"></stop><stop offset="80%" stop-color="#eeb78f" stop-opacity="1"></stop></linearGradient></defs><g transform="translate(900, 0)"><path d="M0 405.6C-46.7 353.7 -93.4 301.8 -158.5 274.5C-223.6 247.2 -307 244.5 -351.3 202.8C-395.5 161.2 -400.6 80.6 -405.6 0L0 0Z" fill="#987256"></path></g><g transform="translate(0, 600)"><path d="M0 -405.6C79.3 -399.8 158.6 -394.1 202.8 -351.3C247 -308.5 256.1 -228.7 284.1 -164C312 -99.3 358.8 -49.6 405.6 0L0 0Z" fill="#987256"></path></g></svg>